<svg width="455" height="110" viewBox="0 0 455 110" fill="none" xmlns="http://www.w3.org/2000/svg">
      <path d="M176.44 82.7809H164.037L159.104 69.988H136.525L131.86 82.7809H119.768L141.769 26.4542H153.827L176.44 82.7809ZM155.441 60.5018L147.659 39.6034L140.032 60.5018H155.441Z" fill="#11193C" />
      <path d="M189.133 82.7809L172.988 37.7218H182.875L194.31 71.068L205.377 37.7218H215.052L198.875 82.7809H189.133Z" fill="#11193C" />
      <path d="M259.822 82.7809H249.902L245.96 72.5488H227.901L224.171 82.7809H214.496L232.098 37.7218H241.74L259.822 82.7809ZM243.021 64.9554L236.797 48.2322L230.695 64.9554H243.021Z" fill="#11193C" />
      <path d="M269.631 82.7809L256.148 26.4542H267.816L276.334 65.1447L286.655 26.4542H300.216L310.114 65.8016L318.787 26.4542H330.266L316.549 82.7809H304.458L293.213 40.6723L282.001 82.7809H269.631Z" fill="#11193C" />
      <path d="M378.131 82.7819H368.211L364.27 72.5498H346.21L342.481 82.7819H332.805L350.408 37.7228H360.05L378.131 82.7819ZM361.33 64.9564L355.106 48.2332L349.005 64.9564H361.33Z" fill="#11193C" />
      <path d="M392.951 82.7809V45.3374H379.545V37.7107H415.452V45.3374H402.081V82.7809H392.951Z" fill="#11193C" />
      <path d="M418.303 82.7809V74.5752L442.029 45.3374H420.975V37.7107H454.043V44.7807L429.292 75.1876H455V82.7809H418.303Z" fill="#11193C" />
      <path d="M76.4902 33.5577C76.0226 29.9614 75.0985 26.5099 73.7067 23.3033C71.402 24.7618 68.6742 25.6192 65.7348 25.6192C64.6882 25.6192 63.6639 25.5078 62.673 25.3074C56.9724 24.1272 52.4632 19.6848 51.1716 14.0287C50.9267 12.9487 50.7819 11.8242 50.7819 10.6663C50.7819 7.83825 51.5836 5.19951 52.9531 2.93931C49.7131 1.61437 46.2616 0.712517 42.643 0.322829C41.2513 0.166954 39.8484 0.0778809 38.4233 0.0778809C17.202 0.0778809 0 17.2798 0 38.5011C0 59.7225 17.202 76.9244 38.4233 76.9244C59.6446 76.9244 76.8465 59.7225 76.8465 38.5011C76.8465 36.8199 76.7018 35.1832 76.4902 33.5577ZM38.4121 66.1133C23.1586 66.1133 10.7999 53.7435 10.7999 38.5011C10.7999 23.2588 23.1698 10.889 38.4121 10.889C39.0913 10.889 39.7593 10.9446 40.4274 10.9892C40.6055 24.8175 51.8619 35.9849 65.7348 35.9849C65.7905 35.9849 65.8462 35.9737 65.9018 35.9737C65.9798 36.8088 66.0243 37.6438 66.0243 38.5011C66.0355 53.7547 53.6656 66.1133 38.4121 66.1133Z" fill="#ED8622" />
      <path d="M66.1803 20.1302C71.7391 20.1302 76.2454 15.6239 76.2454 10.0651C76.2454 4.5063 71.7391 0 66.1803 0C60.6215 0 56.1152 4.5063 56.1152 10.0651C56.1152 15.6239 60.6215 20.1302 66.1803 20.1302Z" fill="#ED8622" />
      <path d="M110.248 65.9909C109.78 62.3946 108.856 58.9431 107.465 55.7365C105.16 57.1951 102.432 58.0524 99.4926 58.0524C98.4461 58.0524 97.4217 57.9411 96.4308 57.7406C90.7302 56.5604 86.221 52.118 84.9295 46.4619C84.6845 45.382 84.5398 44.2574 84.5398 43.0995C84.5398 40.2715 85.3414 37.6327 86.7109 35.3725C83.4709 34.0476 80.0194 33.1457 76.4008 32.7561C75.0091 32.6002 73.6062 32.5111 72.1811 32.5111C50.9598 32.5111 33.7578 49.7131 33.7578 70.9344C33.7578 92.1557 50.9598 109.358 72.1811 109.358C93.4024 109.358 110.604 92.1557 110.604 70.9344C110.604 69.2531 110.46 67.6164 110.248 65.9909ZM72.1811 98.5466C56.9276 98.5466 44.5689 86.1767 44.5689 70.9344C44.5689 55.692 56.9387 43.3222 72.1811 43.3222C72.8602 43.3222 73.5283 43.3778 74.1963 43.4224C74.3745 57.2507 85.6309 68.4181 99.5038 68.4181C99.5595 68.4181 99.6151 68.407 99.6708 68.407C99.7487 69.242 99.7933 70.077 99.7933 70.9344C99.7933 86.1879 87.4346 98.5466 72.1811 98.5466Z" fill="#ED8622" />
      <path d="M99.9381 52.5634C105.497 52.5634 110.003 48.0571 110.003 42.4983C110.003 36.9395 105.497 32.4332 99.9381 32.4332C94.3794 32.4332 89.873 36.9395 89.873 42.4983C89.873 48.0571 94.3794 52.5634 99.9381 52.5634Z" fill="#ED8622" />
    </svg>